<mxfile host="app.diagrams.net" agent="Mozilla/5.0 (Windows NT 10.0; Win64; x64) AppleWebKit/537.36 (KHTML, like Gecko) Chrome/131.0.0.0 Safari/537.36 Edg/131.0.0.0" version="25.0.1">
  <diagram name="หน้า-1" id="yrtri0R_ZTyLKY1V4A8R">
    <mxGraphModel dx="4159" dy="1494" grid="1" gridSize="10" guides="1" tooltips="1" connect="1" arrows="1" fold="1" page="1" pageScale="1" pageWidth="827" pageHeight="1169" math="0" shadow="0">
      <root>
        <mxCell id="0" />
        <mxCell id="1" parent="0" />
        <mxCell id="sU9wg7AmYTuUcDIagpLP-7" value="" style="edgeStyle=orthogonalEdgeStyle;rounded=0;orthogonalLoop=1;jettySize=auto;html=1;" edge="1" parent="1" source="sU9wg7AmYTuUcDIagpLP-1" target="sU9wg7AmYTuUcDIagpLP-6">
          <mxGeometry relative="1" as="geometry" />
        </mxCell>
        <mxCell id="sU9wg7AmYTuUcDIagpLP-1" value="รับข้อมูลเลขUser&amp;nbsp;" style="shape=parallelogram;perimeter=parallelogramPerimeter;whiteSpace=wrap;html=1;fixedSize=1;" vertex="1" parent="1">
          <mxGeometry x="319" y="200" width="190" height="60" as="geometry" />
        </mxCell>
        <mxCell id="sU9wg7AmYTuUcDIagpLP-3" value="" style="edgeStyle=orthogonalEdgeStyle;rounded=0;orthogonalLoop=1;jettySize=auto;html=1;" edge="1" parent="1" source="sU9wg7AmYTuUcDIagpLP-2" target="sU9wg7AmYTuUcDIagpLP-1">
          <mxGeometry relative="1" as="geometry" />
        </mxCell>
        <mxCell id="sU9wg7AmYTuUcDIagpLP-2" value="Start" style="ellipse;whiteSpace=wrap;html=1;" vertex="1" parent="1">
          <mxGeometry x="354" y="70" width="120" height="80" as="geometry" />
        </mxCell>
        <mxCell id="sU9wg7AmYTuUcDIagpLP-71" value="" style="edgeStyle=orthogonalEdgeStyle;rounded=0;orthogonalLoop=1;jettySize=auto;html=1;" edge="1" parent="1" source="sU9wg7AmYTuUcDIagpLP-6" target="sU9wg7AmYTuUcDIagpLP-70">
          <mxGeometry relative="1" as="geometry" />
        </mxCell>
        <mxCell id="sU9wg7AmYTuUcDIagpLP-6" value="คำนวนเกรด" style="shape=process;whiteSpace=wrap;html=1;backgroundOutline=1;" vertex="1" parent="1">
          <mxGeometry x="316" y="310" width="196" height="60" as="geometry" />
        </mxCell>
        <mxCell id="sU9wg7AmYTuUcDIagpLP-11" value="" style="edgeStyle=orthogonalEdgeStyle;rounded=0;orthogonalLoop=1;jettySize=auto;html=1;" edge="1" parent="1" source="sU9wg7AmYTuUcDIagpLP-8" target="sU9wg7AmYTuUcDIagpLP-10">
          <mxGeometry relative="1" as="geometry" />
        </mxCell>
        <mxCell id="sU9wg7AmYTuUcDIagpLP-8" value="คำนวนเกรด" style="ellipse;whiteSpace=wrap;html=1;" vertex="1" parent="1">
          <mxGeometry x="-495" y="40" width="120" height="80" as="geometry" />
        </mxCell>
        <mxCell id="sU9wg7AmYTuUcDIagpLP-15" value="" style="edgeStyle=orthogonalEdgeStyle;rounded=0;orthogonalLoop=1;jettySize=auto;html=1;" edge="1" parent="1" source="sU9wg7AmYTuUcDIagpLP-9" target="sU9wg7AmYTuUcDIagpLP-13">
          <mxGeometry relative="1" as="geometry" />
        </mxCell>
        <mxCell id="sU9wg7AmYTuUcDIagpLP-31" value="" style="edgeStyle=orthogonalEdgeStyle;rounded=0;orthogonalLoop=1;jettySize=auto;html=1;" edge="1" parent="1" source="sU9wg7AmYTuUcDIagpLP-9" target="sU9wg7AmYTuUcDIagpLP-14">
          <mxGeometry relative="1" as="geometry" />
        </mxCell>
        <mxCell id="sU9wg7AmYTuUcDIagpLP-9" value="เลขที่Userกรอกมามากกว่า&lt;div&gt;80 ไหม&lt;/div&gt;" style="rhombus;whiteSpace=wrap;html=1;" vertex="1" parent="1">
          <mxGeometry x="-520" y="260" width="170" height="110" as="geometry" />
        </mxCell>
        <mxCell id="sU9wg7AmYTuUcDIagpLP-12" value="" style="edgeStyle=orthogonalEdgeStyle;rounded=0;orthogonalLoop=1;jettySize=auto;html=1;" edge="1" parent="1" source="sU9wg7AmYTuUcDIagpLP-10" target="sU9wg7AmYTuUcDIagpLP-9">
          <mxGeometry relative="1" as="geometry" />
        </mxCell>
        <mxCell id="sU9wg7AmYTuUcDIagpLP-10" value="รับข้อมูลเลขUser&amp;nbsp;" style="shape=parallelogram;perimeter=parallelogramPerimeter;whiteSpace=wrap;html=1;fixedSize=1;" vertex="1" parent="1">
          <mxGeometry x="-530" y="160" width="190" height="60" as="geometry" />
        </mxCell>
        <mxCell id="sU9wg7AmYTuUcDIagpLP-18" value="" style="edgeStyle=orthogonalEdgeStyle;rounded=0;orthogonalLoop=1;jettySize=auto;html=1;" edge="1" parent="1" source="sU9wg7AmYTuUcDIagpLP-13" target="sU9wg7AmYTuUcDIagpLP-17">
          <mxGeometry relative="1" as="geometry" />
        </mxCell>
        <mxCell id="sU9wg7AmYTuUcDIagpLP-30" value="" style="edgeStyle=orthogonalEdgeStyle;rounded=0;orthogonalLoop=1;jettySize=auto;html=1;" edge="1" parent="1" source="sU9wg7AmYTuUcDIagpLP-13" target="sU9wg7AmYTuUcDIagpLP-16">
          <mxGeometry relative="1" as="geometry" />
        </mxCell>
        <mxCell id="sU9wg7AmYTuUcDIagpLP-13" value="เลขที่Userกรอกมามากกว่า&lt;div&gt;75 แต่ไม่เกิน 80&lt;/div&gt;" style="rhombus;whiteSpace=wrap;html=1;" vertex="1" parent="1">
          <mxGeometry x="-520" y="440" width="170" height="110" as="geometry" />
        </mxCell>
        <mxCell id="sU9wg7AmYTuUcDIagpLP-45" style="edgeStyle=orthogonalEdgeStyle;rounded=0;orthogonalLoop=1;jettySize=auto;html=1;entryX=0.5;entryY=0;entryDx=0;entryDy=0;" edge="1" parent="1" source="sU9wg7AmYTuUcDIagpLP-14" target="sU9wg7AmYTuUcDIagpLP-44">
          <mxGeometry relative="1" as="geometry" />
        </mxCell>
        <mxCell id="sU9wg7AmYTuUcDIagpLP-14" value="เกรด A" style="shape=parallelogram;perimeter=parallelogramPerimeter;whiteSpace=wrap;html=1;fixedSize=1;" vertex="1" parent="1">
          <mxGeometry x="-300" y="285" width="190" height="60" as="geometry" />
        </mxCell>
        <mxCell id="sU9wg7AmYTuUcDIagpLP-46" value="" style="edgeStyle=orthogonalEdgeStyle;rounded=0;orthogonalLoop=1;jettySize=auto;html=1;" edge="1" parent="1" source="sU9wg7AmYTuUcDIagpLP-16" target="sU9wg7AmYTuUcDIagpLP-44">
          <mxGeometry relative="1" as="geometry" />
        </mxCell>
        <mxCell id="sU9wg7AmYTuUcDIagpLP-16" value="เกรด B+" style="shape=parallelogram;perimeter=parallelogramPerimeter;whiteSpace=wrap;html=1;fixedSize=1;" vertex="1" parent="1">
          <mxGeometry x="-300" y="465" width="190" height="60" as="geometry" />
        </mxCell>
        <mxCell id="sU9wg7AmYTuUcDIagpLP-23" value="" style="edgeStyle=orthogonalEdgeStyle;rounded=0;orthogonalLoop=1;jettySize=auto;html=1;" edge="1" parent="1" source="sU9wg7AmYTuUcDIagpLP-17" target="sU9wg7AmYTuUcDIagpLP-21">
          <mxGeometry relative="1" as="geometry" />
        </mxCell>
        <mxCell id="sU9wg7AmYTuUcDIagpLP-29" value="" style="edgeStyle=orthogonalEdgeStyle;rounded=0;orthogonalLoop=1;jettySize=auto;html=1;" edge="1" parent="1" source="sU9wg7AmYTuUcDIagpLP-17" target="sU9wg7AmYTuUcDIagpLP-19">
          <mxGeometry relative="1" as="geometry" />
        </mxCell>
        <mxCell id="sU9wg7AmYTuUcDIagpLP-17" value="เลขที่Userกรอกมามากกว่า&lt;div&gt;70 แต่&lt;span style=&quot;background-color: initial;&quot;&gt;ไม่&lt;/span&gt;&lt;span style=&quot;background-color: initial;&quot;&gt;เกิน 75&lt;/span&gt;&lt;/div&gt;" style="rhombus;whiteSpace=wrap;html=1;" vertex="1" parent="1">
          <mxGeometry x="-520" y="620" width="170" height="110" as="geometry" />
        </mxCell>
        <mxCell id="sU9wg7AmYTuUcDIagpLP-49" value="" style="edgeStyle=orthogonalEdgeStyle;rounded=0;orthogonalLoop=1;jettySize=auto;html=1;" edge="1" parent="1" source="sU9wg7AmYTuUcDIagpLP-19" target="sU9wg7AmYTuUcDIagpLP-47">
          <mxGeometry relative="1" as="geometry" />
        </mxCell>
        <mxCell id="sU9wg7AmYTuUcDIagpLP-19" value="เกรด B" style="shape=parallelogram;perimeter=parallelogramPerimeter;whiteSpace=wrap;html=1;fixedSize=1;" vertex="1" parent="1">
          <mxGeometry x="-300" y="645" width="190" height="60" as="geometry" />
        </mxCell>
        <mxCell id="sU9wg7AmYTuUcDIagpLP-26" value="" style="edgeStyle=orthogonalEdgeStyle;rounded=0;orthogonalLoop=1;jettySize=auto;html=1;" edge="1" parent="1" source="sU9wg7AmYTuUcDIagpLP-21" target="sU9wg7AmYTuUcDIagpLP-24">
          <mxGeometry relative="1" as="geometry" />
        </mxCell>
        <mxCell id="sU9wg7AmYTuUcDIagpLP-28" value="" style="edgeStyle=orthogonalEdgeStyle;rounded=0;orthogonalLoop=1;jettySize=auto;html=1;" edge="1" parent="1" source="sU9wg7AmYTuUcDIagpLP-21" target="sU9wg7AmYTuUcDIagpLP-22">
          <mxGeometry relative="1" as="geometry" />
        </mxCell>
        <mxCell id="sU9wg7AmYTuUcDIagpLP-21" value="เลขที่Userกรอกมามากกว่า&lt;div&gt;65 แต่&lt;span style=&quot;background-color: initial;&quot;&gt;ไม่&lt;/span&gt;&lt;span style=&quot;background-color: initial;&quot;&gt;เกิน 70&lt;/span&gt;&lt;/div&gt;" style="rhombus;whiteSpace=wrap;html=1;" vertex="1" parent="1">
          <mxGeometry x="-520" y="800" width="170" height="110" as="geometry" />
        </mxCell>
        <mxCell id="sU9wg7AmYTuUcDIagpLP-52" value="" style="edgeStyle=orthogonalEdgeStyle;rounded=0;orthogonalLoop=1;jettySize=auto;html=1;" edge="1" parent="1" source="sU9wg7AmYTuUcDIagpLP-22" target="sU9wg7AmYTuUcDIagpLP-50">
          <mxGeometry relative="1" as="geometry" />
        </mxCell>
        <mxCell id="sU9wg7AmYTuUcDIagpLP-22" value="เกรด C+" style="shape=parallelogram;perimeter=parallelogramPerimeter;whiteSpace=wrap;html=1;fixedSize=1;" vertex="1" parent="1">
          <mxGeometry x="-300" y="825" width="190" height="60" as="geometry" />
        </mxCell>
        <mxCell id="sU9wg7AmYTuUcDIagpLP-27" value="" style="edgeStyle=orthogonalEdgeStyle;rounded=0;orthogonalLoop=1;jettySize=auto;html=1;" edge="1" parent="1" source="sU9wg7AmYTuUcDIagpLP-24" target="sU9wg7AmYTuUcDIagpLP-25">
          <mxGeometry relative="1" as="geometry" />
        </mxCell>
        <mxCell id="sU9wg7AmYTuUcDIagpLP-34" value="" style="edgeStyle=orthogonalEdgeStyle;rounded=0;orthogonalLoop=1;jettySize=auto;html=1;" edge="1" parent="1" source="sU9wg7AmYTuUcDIagpLP-24" target="sU9wg7AmYTuUcDIagpLP-32">
          <mxGeometry relative="1" as="geometry" />
        </mxCell>
        <mxCell id="sU9wg7AmYTuUcDIagpLP-24" value="เลขที่Userกรอกมามากกว่า&lt;div&gt;60 แต่&lt;span style=&quot;background-color: initial;&quot;&gt;ไม่&lt;/span&gt;&lt;span style=&quot;background-color: initial;&quot;&gt;เกิน 65&lt;/span&gt;&lt;/div&gt;" style="rhombus;whiteSpace=wrap;html=1;" vertex="1" parent="1">
          <mxGeometry x="-520" y="980" width="170" height="110" as="geometry" />
        </mxCell>
        <mxCell id="sU9wg7AmYTuUcDIagpLP-64" value="" style="edgeStyle=orthogonalEdgeStyle;rounded=0;orthogonalLoop=1;jettySize=auto;html=1;" edge="1" parent="1" source="sU9wg7AmYTuUcDIagpLP-25" target="sU9wg7AmYTuUcDIagpLP-53">
          <mxGeometry relative="1" as="geometry" />
        </mxCell>
        <mxCell id="sU9wg7AmYTuUcDIagpLP-25" value="เกรด C" style="shape=parallelogram;perimeter=parallelogramPerimeter;whiteSpace=wrap;html=1;fixedSize=1;" vertex="1" parent="1">
          <mxGeometry x="-300" y="1005" width="190" height="60" as="geometry" />
        </mxCell>
        <mxCell id="sU9wg7AmYTuUcDIagpLP-35" value="" style="edgeStyle=orthogonalEdgeStyle;rounded=0;orthogonalLoop=1;jettySize=auto;html=1;" edge="1" parent="1" source="sU9wg7AmYTuUcDIagpLP-32" target="sU9wg7AmYTuUcDIagpLP-33">
          <mxGeometry relative="1" as="geometry" />
        </mxCell>
        <mxCell id="sU9wg7AmYTuUcDIagpLP-38" value="" style="edgeStyle=orthogonalEdgeStyle;rounded=0;orthogonalLoop=1;jettySize=auto;html=1;" edge="1" parent="1" source="sU9wg7AmYTuUcDIagpLP-32" target="sU9wg7AmYTuUcDIagpLP-36">
          <mxGeometry relative="1" as="geometry" />
        </mxCell>
        <mxCell id="sU9wg7AmYTuUcDIagpLP-32" value="เลขที่Userกรอกมามากกว่า&lt;div&gt;55 แต่&lt;span style=&quot;background-color: initial;&quot;&gt;ไม่&lt;/span&gt;&lt;span style=&quot;background-color: initial;&quot;&gt;เกิน 60&lt;/span&gt;&lt;/div&gt;" style="rhombus;whiteSpace=wrap;html=1;" vertex="1" parent="1">
          <mxGeometry x="-520" y="1160" width="170" height="110" as="geometry" />
        </mxCell>
        <mxCell id="sU9wg7AmYTuUcDIagpLP-62" value="" style="edgeStyle=orthogonalEdgeStyle;rounded=0;orthogonalLoop=1;jettySize=auto;html=1;" edge="1" parent="1" source="sU9wg7AmYTuUcDIagpLP-33" target="sU9wg7AmYTuUcDIagpLP-54">
          <mxGeometry relative="1" as="geometry" />
        </mxCell>
        <mxCell id="sU9wg7AmYTuUcDIagpLP-33" value="เกรด D+" style="shape=parallelogram;perimeter=parallelogramPerimeter;whiteSpace=wrap;html=1;fixedSize=1;" vertex="1" parent="1">
          <mxGeometry x="-300" y="1185" width="190" height="60" as="geometry" />
        </mxCell>
        <mxCell id="sU9wg7AmYTuUcDIagpLP-39" value="" style="edgeStyle=orthogonalEdgeStyle;rounded=0;orthogonalLoop=1;jettySize=auto;html=1;" edge="1" parent="1" source="sU9wg7AmYTuUcDIagpLP-36" target="sU9wg7AmYTuUcDIagpLP-37">
          <mxGeometry relative="1" as="geometry" />
        </mxCell>
        <mxCell id="sU9wg7AmYTuUcDIagpLP-41" value="" style="edgeStyle=orthogonalEdgeStyle;rounded=0;orthogonalLoop=1;jettySize=auto;html=1;" edge="1" parent="1" source="sU9wg7AmYTuUcDIagpLP-36" target="sU9wg7AmYTuUcDIagpLP-40">
          <mxGeometry relative="1" as="geometry" />
        </mxCell>
        <mxCell id="sU9wg7AmYTuUcDIagpLP-36" value="เลขที่Userกรอกมามากกว่า&lt;div&gt;50 แต่&lt;span style=&quot;background-color: initial;&quot;&gt;ไม่&lt;/span&gt;&lt;span style=&quot;background-color: initial;&quot;&gt;เกิน 55&lt;/span&gt;&lt;/div&gt;" style="rhombus;whiteSpace=wrap;html=1;" vertex="1" parent="1">
          <mxGeometry x="-520" y="1340" width="170" height="110" as="geometry" />
        </mxCell>
        <mxCell id="sU9wg7AmYTuUcDIagpLP-61" value="" style="edgeStyle=orthogonalEdgeStyle;rounded=0;orthogonalLoop=1;jettySize=auto;html=1;" edge="1" parent="1" source="sU9wg7AmYTuUcDIagpLP-37" target="sU9wg7AmYTuUcDIagpLP-55">
          <mxGeometry relative="1" as="geometry" />
        </mxCell>
        <mxCell id="sU9wg7AmYTuUcDIagpLP-37" value="เกรด D" style="shape=parallelogram;perimeter=parallelogramPerimeter;whiteSpace=wrap;html=1;fixedSize=1;" vertex="1" parent="1">
          <mxGeometry x="-300" y="1365" width="190" height="60" as="geometry" />
        </mxCell>
        <mxCell id="sU9wg7AmYTuUcDIagpLP-43" value="" style="edgeStyle=orthogonalEdgeStyle;rounded=0;orthogonalLoop=1;jettySize=auto;html=1;" edge="1" parent="1" source="sU9wg7AmYTuUcDIagpLP-40" target="sU9wg7AmYTuUcDIagpLP-42">
          <mxGeometry relative="1" as="geometry" />
        </mxCell>
        <mxCell id="sU9wg7AmYTuUcDIagpLP-59" value="" style="edgeStyle=orthogonalEdgeStyle;rounded=0;orthogonalLoop=1;jettySize=auto;html=1;" edge="1" parent="1" source="sU9wg7AmYTuUcDIagpLP-40" target="sU9wg7AmYTuUcDIagpLP-57">
          <mxGeometry relative="1" as="geometry" />
        </mxCell>
        <mxCell id="sU9wg7AmYTuUcDIagpLP-40" value="เลขที่Userกรอกมาต่ำกว่า&lt;div&gt;50&lt;/div&gt;" style="rhombus;whiteSpace=wrap;html=1;" vertex="1" parent="1">
          <mxGeometry x="-520" y="1520" width="170" height="110" as="geometry" />
        </mxCell>
        <mxCell id="sU9wg7AmYTuUcDIagpLP-63" value="" style="edgeStyle=orthogonalEdgeStyle;rounded=0;orthogonalLoop=1;jettySize=auto;html=1;" edge="1" parent="1" source="sU9wg7AmYTuUcDIagpLP-42" target="sU9wg7AmYTuUcDIagpLP-56">
          <mxGeometry relative="1" as="geometry" />
        </mxCell>
        <mxCell id="sU9wg7AmYTuUcDIagpLP-42" value="เกรด D" style="shape=parallelogram;perimeter=parallelogramPerimeter;whiteSpace=wrap;html=1;fixedSize=1;" vertex="1" parent="1">
          <mxGeometry x="-300" y="1545" width="190" height="60" as="geometry" />
        </mxCell>
        <mxCell id="sU9wg7AmYTuUcDIagpLP-48" style="edgeStyle=orthogonalEdgeStyle;rounded=0;orthogonalLoop=1;jettySize=auto;html=1;entryX=0.5;entryY=0;entryDx=0;entryDy=0;" edge="1" parent="1" source="sU9wg7AmYTuUcDIagpLP-44" target="sU9wg7AmYTuUcDIagpLP-47">
          <mxGeometry relative="1" as="geometry" />
        </mxCell>
        <mxCell id="sU9wg7AmYTuUcDIagpLP-44" value="" style="ellipse;whiteSpace=wrap;html=1;aspect=fixed;" vertex="1" parent="1">
          <mxGeometry x="-40" y="482.5" width="25" height="25" as="geometry" />
        </mxCell>
        <mxCell id="sU9wg7AmYTuUcDIagpLP-51" style="edgeStyle=orthogonalEdgeStyle;rounded=0;orthogonalLoop=1;jettySize=auto;html=1;entryX=0.5;entryY=0;entryDx=0;entryDy=0;" edge="1" parent="1" source="sU9wg7AmYTuUcDIagpLP-47" target="sU9wg7AmYTuUcDIagpLP-50">
          <mxGeometry relative="1" as="geometry" />
        </mxCell>
        <mxCell id="sU9wg7AmYTuUcDIagpLP-47" value="" style="ellipse;whiteSpace=wrap;html=1;aspect=fixed;" vertex="1" parent="1">
          <mxGeometry x="-40" y="662.5" width="25" height="25" as="geometry" />
        </mxCell>
        <mxCell id="sU9wg7AmYTuUcDIagpLP-65" style="edgeStyle=orthogonalEdgeStyle;rounded=0;orthogonalLoop=1;jettySize=auto;html=1;" edge="1" parent="1" source="sU9wg7AmYTuUcDIagpLP-50" target="sU9wg7AmYTuUcDIagpLP-53">
          <mxGeometry relative="1" as="geometry" />
        </mxCell>
        <mxCell id="sU9wg7AmYTuUcDIagpLP-50" value="" style="ellipse;whiteSpace=wrap;html=1;aspect=fixed;" vertex="1" parent="1">
          <mxGeometry x="-40" y="842.5" width="25" height="25" as="geometry" />
        </mxCell>
        <mxCell id="sU9wg7AmYTuUcDIagpLP-66" style="edgeStyle=orthogonalEdgeStyle;rounded=0;orthogonalLoop=1;jettySize=auto;html=1;entryX=0.5;entryY=0;entryDx=0;entryDy=0;" edge="1" parent="1" source="sU9wg7AmYTuUcDIagpLP-53" target="sU9wg7AmYTuUcDIagpLP-54">
          <mxGeometry relative="1" as="geometry" />
        </mxCell>
        <mxCell id="sU9wg7AmYTuUcDIagpLP-53" value="" style="ellipse;whiteSpace=wrap;html=1;aspect=fixed;" vertex="1" parent="1">
          <mxGeometry x="-40" y="1022.5" width="25" height="25" as="geometry" />
        </mxCell>
        <mxCell id="sU9wg7AmYTuUcDIagpLP-67" style="edgeStyle=orthogonalEdgeStyle;rounded=0;orthogonalLoop=1;jettySize=auto;html=1;" edge="1" parent="1" source="sU9wg7AmYTuUcDIagpLP-54" target="sU9wg7AmYTuUcDIagpLP-55">
          <mxGeometry relative="1" as="geometry" />
        </mxCell>
        <mxCell id="sU9wg7AmYTuUcDIagpLP-54" value="" style="ellipse;whiteSpace=wrap;html=1;aspect=fixed;" vertex="1" parent="1">
          <mxGeometry x="-40" y="1202.5" width="25" height="25" as="geometry" />
        </mxCell>
        <mxCell id="sU9wg7AmYTuUcDIagpLP-68" style="edgeStyle=orthogonalEdgeStyle;rounded=0;orthogonalLoop=1;jettySize=auto;html=1;entryX=0.5;entryY=0;entryDx=0;entryDy=0;" edge="1" parent="1" source="sU9wg7AmYTuUcDIagpLP-55" target="sU9wg7AmYTuUcDIagpLP-56">
          <mxGeometry relative="1" as="geometry" />
        </mxCell>
        <mxCell id="sU9wg7AmYTuUcDIagpLP-55" value="" style="ellipse;whiteSpace=wrap;html=1;aspect=fixed;" vertex="1" parent="1">
          <mxGeometry x="-40" y="1382.5" width="25" height="25" as="geometry" />
        </mxCell>
        <mxCell id="sU9wg7AmYTuUcDIagpLP-69" style="edgeStyle=orthogonalEdgeStyle;rounded=0;orthogonalLoop=1;jettySize=auto;html=1;entryX=1;entryY=0.5;entryDx=0;entryDy=0;" edge="1" parent="1" source="sU9wg7AmYTuUcDIagpLP-56" target="sU9wg7AmYTuUcDIagpLP-57">
          <mxGeometry relative="1" as="geometry">
            <Array as="points">
              <mxPoint x="-27" y="1711" />
            </Array>
          </mxGeometry>
        </mxCell>
        <mxCell id="sU9wg7AmYTuUcDIagpLP-56" value="" style="ellipse;whiteSpace=wrap;html=1;aspect=fixed;" vertex="1" parent="1">
          <mxGeometry x="-40" y="1562.5" width="25" height="25" as="geometry" />
        </mxCell>
        <mxCell id="sU9wg7AmYTuUcDIagpLP-60" value="" style="edgeStyle=orthogonalEdgeStyle;rounded=0;orthogonalLoop=1;jettySize=auto;html=1;" edge="1" parent="1" source="sU9wg7AmYTuUcDIagpLP-57" target="sU9wg7AmYTuUcDIagpLP-58">
          <mxGeometry relative="1" as="geometry" />
        </mxCell>
        <mxCell id="sU9wg7AmYTuUcDIagpLP-57" value="" style="ellipse;whiteSpace=wrap;html=1;aspect=fixed;" vertex="1" parent="1">
          <mxGeometry x="-447.5" y="1698.5" width="25" height="25" as="geometry" />
        </mxCell>
        <mxCell id="sU9wg7AmYTuUcDIagpLP-58" value="END" style="ellipse;whiteSpace=wrap;html=1;" vertex="1" parent="1">
          <mxGeometry x="-495" y="1790" width="120" height="80" as="geometry" />
        </mxCell>
        <mxCell id="sU9wg7AmYTuUcDIagpLP-70" value="END" style="ellipse;whiteSpace=wrap;html=1;" vertex="1" parent="1">
          <mxGeometry x="354" y="420" width="120" height="80" as="geometry" />
        </mxCell>
      </root>
    </mxGraphModel>
  </diagram>
</mxfile>
